<svg xmlns="http://www.w3.org/2000/svg" style="display:none">
    <symbol id="ic-menu" viewBox="0 0 24 24" fill="currentColor"><path d="M0 0h24v24H0z" fill="none"/><path d="M3 18h18v-2H3v2zm0-5h18v-2H3v2zm0-7v2h18V6H3z"/></symbol>
    <symbol id="ic-account" viewBox="0 0 24 24" fill="currentColor"><path d="M0 0h24v24H0z" fill="none"/><path d="M15 12c2.21 0 4-1.79 4-4s-1.79-4-4-4-4 1.79-4 4 1.79 4 4 4zm-9-2V7H4v3H1v2h3v3h2v-3h3v-2H6zm9 4c-2.67 0-8 1.34-8 4v2h16v-2c0-2.66-5.33-4-8-4z"/></symbol>
    <symbol id="ic-chvup" viewBox="0 0 24 24" fill="currentColor"><path d="M0 0h24v24H0z" fill="none"/><path d="M12 8l-6 6 1.41 1.41L12 10.83l4.59 4.58L18 14z"/></symbol>
    <symbol id="ic-home" viewBox="0 0 24 24" fill="currentColor"><path d="M0 0h24v24H0z" fill="none"/><path d="M10 20v-6h4v6h5v-8h3L12 3 2 12h3v8z"/></symbol>
    <symbol id="ic-fire" viewBox="0 0 24 24" fill="currentColor"><path d="M0 0h24v24H0z" fill="none"/><path d="M13.5.67s.74 2.65.74 4.8c0 2.06-1.35 3.73-3.41 3.73-2.07 0-3.63-1.67-3.63-3.73l.03-.36C5.21 7.51 4 10.62 4 14c0 4.42 3.58 8 8 8s8-3.58 8-8C20 8.61 17.41 3.8 13.5.67zM11.71 19c-1.78 0-3.22-1.4-3.22-3.14 0-1.62 1.05-2.76 2.81-3.12 1.77-.36 3.6-1.21 4.62-2.58.39 1.29.59 2.65.59 4.04 0 2.65-2.15 4.8-4.8 4.8z"/></symbol>
    <symbol id="ic-random" viewBox="0 0 512 512"><g fill="currentColor"><path d="M504.971 359.029c9.373 9.373 9.373 24.569 0 33.941l-80 79.984c-15.01 15.01-40.971 4.49-40.971-16.971V416h-58.785a12.004 12.004 0 0 1-8.773-3.812l-70.556-75.596 53.333-57.143L352 336h32v-39.981c0-21.438 25.943-31.998 40.971-16.971l80 79.981zM12 176h84l52.781 56.551 53.333-57.143-70.556-75.596A11.999 11.999 0 0 0 122.785 96H12c-6.627 0-12 5.373-12 12v56c0 6.627 5.373 12 12 12zm372 0v39.984c0 21.46 25.961 31.98 40.971 16.971l80-79.984c9.373-9.373 9.373-24.569 0-33.941l-80-79.981C409.943 24.021 384 34.582 384 56.019V96h-58.785a12.004 12.004 0 0 0-8.773 3.812L96 336H12c-6.627 0-12 5.373-12 12v56c0 6.627 5.373 12 12 12h110.785c3.326 0 6.503-1.381 8.773-3.812L352 176h32z"></path></g></symbol>
    <symbol id="ic-image" viewBox="0 0 24 24" fill="currentColor"><path d="M0 0h24v24H0z" fill="none"/><path d="M14 6l-3.75 5 2.85 3.8-1.6 1.2C9.81 13.75 7 10 7 10l-6 8h22L14 6z"/></symbol>
    <symbol id="ic-search" viewBox="0 0 24 24"><g fill="none"><path d="M15.5 14h-.79l-.28-.27A6.471 6.471 0 0 0 16 9.5 6.5 6.5 0 1 0 9.5 16c1.61 0 3.09-.59 4.23-1.57l.27.28v.79l5 4.99L20.49 19l-4.99-5zm-6 0C7.01 14 5 11.99 5 9.5S7.01 5 9.5 5 14 7.01 14 9.5 11.99 14 9.5 14z" fill="currentColor"></path></g></symbol>
    <symbol id="ic-browse" viewBox="0 0 24 24"><g fill="none"><path d="M7.2 17.6a3.2 3.2 0 1 0 0-6.4 3.2 3.2 0 0 0 0 6.4z" fill="currentColor"></path><path d="M14.8 20a2 2 0 1 0 0-4 2 2 0 0 0 0 4z" fill="currentColor"></path><path d="M15.2 13.6a4.8 4.8 0 1 0 0-9.6 4.8 4.8 0 0 0 0 9.6z" fill="currentColor"></path></g></symbol>
    <symbol id="ic-apps" viewBox="0 0 24 24"><g fill="none"><path d="M4 8h4V4H4v4zm6 12h4v-4h-4v4zm-6 0h4v-4H4v4zm0-6h4v-4H4v4zm6 0h4v-4h-4v4zm6-10v4h4V4h-4zm-6 4h4V4h-4v4zm6 6h4v-4h-4v4zm0 6h4v-4h-4v4z" fill="currentColor"></path></g></symbol>
    <symbol id="ic-login" viewBox="0 0 24 24"><g fill="none"><path d="M10.09 15.59L11.5 17l5-5-5-5-1.41 1.41L12.67 11H3v2h9.67l-2.58 2.59zM19 3H5a2 2 0 0 0-2 2v4h2V5h14v14H5v-4H3v4a2 2 0 0 0 2 2h14c1.1 0 2-.9 2-2V5c0-1.1-.9-2-2-2z" fill="currentColor"></path></g></symbol>
    <symbol id="ic-contact" viewBox="0 0 24 24"><g fill="none"><path d="M20 2H4c-1.1 0-1.99.9-1.99 2L2 22l4-4h14c1.1 0 2-.9 2-2V4c0-1.1-.9-2-2-2zm-7 9h-2V5h2v6zm0 4h-2v-2h2v2z" fill="currentColor"></path></g></symbol>
    <symbol id="ic-rss" viewBox="0 0 24 24"><g fill="none"><path d="M6.18 20a2.18 2.18 0 1 0 0-4.36 2.18 2.18 0 0 0 0 4.36z" fill="currentColor"></path><path d="M4 4.44v2.83c7.03 0 12.73 5.7 12.73 12.73h2.83c0-8.59-6.97-15.56-15.56-15.56zm0 5.66v2.83c3.9 0 7.07 3.17 7.07 7.07h2.83c0-5.47-4.43-9.9-9.9-9.9z" fill="currentColor"></path></g></symbol>
    <symbol id="ic-discord" viewBox="0 0 448 512"><g fill="currentColor"><path d="M297.216 243.2c0 15.616-11.52 28.416-26.112 28.416-14.336 0-26.112-12.8-26.112-28.416s11.52-28.416 26.112-28.416c14.592 0 26.112 12.8 26.112 28.416zm-119.552-28.416c-14.592 0-26.112 12.8-26.112 28.416s11.776 28.416 26.112 28.416c14.592 0 26.112-12.8 26.112-28.416.256-15.616-11.52-28.416-26.112-28.416zM448 52.736V512c-64.494-56.994-43.868-38.128-118.784-107.776l13.568 47.36H52.48C23.552 451.584 0 428.032 0 398.848V52.736C0 23.552 23.552 0 52.48 0h343.04C424.448 0 448 23.552 448 52.736zm-72.96 242.688c0-82.432-36.864-149.248-36.864-149.248-36.864-27.648-71.936-26.88-71.936-26.88l-3.584 4.096c43.52 13.312 63.744 32.512 63.744 32.512-60.811-33.329-132.244-33.335-191.232-7.424-9.472 4.352-15.104 7.424-15.104 7.424s21.248-20.224 67.328-33.536l-2.56-3.072s-35.072-.768-71.936 26.88c0 0-36.864 66.816-36.864 149.248 0 0 21.504 37.12 78.08 38.912 0 0 9.472-11.52 17.152-21.248-32.512-9.728-44.8-30.208-44.8-30.208 3.766 2.636 9.976 6.053 10.496 6.4 43.21 24.198 104.588 32.126 159.744 8.96 8.96-3.328 18.944-8.192 29.44-15.104 0 0-12.8 20.992-46.336 30.464 7.68 9.728 16.896 20.736 16.896 20.736 56.576-1.792 78.336-38.912 78.336-38.912z"></path></g></symbol>
    <symbol id="ic-dvr" viewBox="0 0 24 24"><g fill="none"><path d="M10 18h5v-6h-5v6zm-6 0h5V5H4v13zm12 0h5v-6h-5v6zM10 5v6h11V5H10z" fill="currentColor"></path></g></symbol>
    <symbol id="ic-gavel" viewBox="0 0 24 24"><g fill="none"><path d="M1 21h12v2H1v-2zM5.24 8.07l2.83-2.83 14.14 14.14-2.83 2.83L5.24 8.07zM12.32 1l5.66 5.66-2.83 2.83-5.66-5.66L12.32 1zM3.83 9.48l5.66 5.66-2.83 2.83L1 12.31l2.83-2.83z" fill="currentColor"></path></g></symbol>
    <symbol id="ic-eula" viewBox="0 0 24 24"><g fill="none"><path d="M19 3H5c-1.1 0-2 .9-2 2v14c0 1.1.9 2 2 2h14c1.1 0 2-.9 2-2V5c0-1.1-.9-2-2-2zm-5 14H7v-2h7v2zm3-4H7v-2h10v2zm0-4H7V7h10v2z" fill="currentColor"></path></g></symbol>
    <symbol id="ic-verified" viewBox="0 0 24 24"><g fill="none"><path d="M12 1L3 5v6c0 5.55 3.84 10.74 9 12 5.16-1.26 9-6.45 9-12V5l-9-4zm-2 16l-4-4 1.41-1.41L10 14.17l6.59-6.59L18 9l-8 8z" fill="currentColor"></path></g></symbol>
    <symbol id="ic-privacy" enable-background="new 0 0 24 24" height="24px" viewBox="0 0 24 24" fill="currentColor"><g><rect fill="none" height="24" width="24"/><path d="M12,3.19l7,3.11V11c0,4.52-2.98,8.69-7,9.93C7.98,19.69,5,15.52,5,11V6.3L12,3.19 M12,1L3,5v6c0,5.55,3.84,10.74,9,12 c5.16-1.26,9-6.45,9-12V5L12,1L12,1z M11,7h2v2h-2V7z M11,11h2v6h-2V11z"/></g></symbol>
    <symbol id="ic-cookie" enable-background="new 0 0 24 24" viewBox="0 0 24 24" fill="currentColor"><g><rect fill="none" height="24" width="24"/></g><g><g><path d="M21.95,10.99c-1.79-0.03-3.7-1.95-2.68-4.22c-2.98,1-5.77-1.59-5.19-4.56C6.95,0.71,2,6.58,2,12c0,5.52,4.48,10,10,10 C17.89,22,22.54,16.92,21.95,10.99z M8.5,15C7.67,15,7,14.33,7,13.5S7.67,12,8.5,12s1.5,0.67,1.5,1.5S9.33,15,8.5,15z M10.5,10 C9.67,10,9,9.33,9,8.5S9.67,7,10.5,7S12,7.67,12,8.5S11.33,10,10.5,10z M15,16c-0.55,0-1-0.45-1-1c0-0.55,0.45-1,1-1s1,0.45,1,1 C16,15.55,15.55,16,15,16z"/></g></g></symbol>
    <symbol id="ic-eye" viewBox="0 0 16 16"><g fill="currentColor"><path d="M8,14c4.707,0,7.744-5.284,7.871-5.508c0.171-0.304,0.172-0.676,0.001-0.98C15.746,7.287,12.731,2,8,2 C3.245,2,0.251,7.289,0.126,7.514c-0.169,0.303-0.168,0.672,0.002,0.975C0.254,8.713,3.269,14,8,14z M8,4 c2.839,0,5.036,2.835,5.818,4C13.034,9.166,10.837,12,8,12c-2.841,0-5.038-2.838-5.819-4.001C2.958,6.835,5.146,4,8,4z"></path> <circle cx="8" cy="8" r="2"></circle></g></symbol>
    <symbol id="ic-eyeb" viewBox="0 0 16 16"><g fill="currentColor"><path d="M14.574,5.669l-1.424,1.424C13.428,7.44,13.656,7.757,13.819,8c-0.76,1.13-2.85,3.82-5.561,3.985L6.443,13.8 C6.939,13.924,7.457,14,8,14c4.707,0,7.744-5.284,7.871-5.508c0.171-0.304,0.172-0.676,0.001-0.98 C15.825,7.427,15.372,6.631,14.574,5.669z"></path> <path d="M0.293,15.707C0.488,15.902,0.744,16,1,16s0.512-0.098,0.707-0.293l14-14c0.391-0.391,0.391-1.023,0-1.414 s-1.023-0.391-1.414,0l-2.745,2.745C10.515,2.431,9.331,2,8,2C3.245,2,0.251,7.289,0.126,7.514 c-0.169,0.303-0.168,0.672,0.002,0.975c0.07,0.125,1.044,1.802,2.693,3.276l-2.529,2.529C-0.098,14.684-0.098,15.316,0.293,15.707z M2.181,7.999C2.958,6.835,5.146,4,8,4c0.742,0,1.437,0.201,2.078,0.508L8.512,6.074C8.348,6.029,8.178,6,8,6C6.895,6,6,6.895,6,8 c0,0.178,0.029,0.348,0.074,0.512L4.24,10.346C3.285,9.51,2.559,8.562,2.181,7.999z"></path></g></symbol>
    <symbol id="ic-left" viewBox="0 0 24 24"><g fill="none"><path d="M15.41 7.41L14 6l-6 6 6 6 1.41-1.41L10.83 12l4.58-4.59z" fill="currentColor"></path></g></symbol>
    <symbol id="ic-right" viewBox="0 0 24 24"><g fill="none"><path d="M10 6L8.59 7.41 13.17 12l-4.58 4.59L10 18l6-6-6-6z" fill="currentColor"></path></g></symbol>
    <symbol id="ic-leaf" viewBox="0 0 576 512"><g fill="currentColor"><path d="M546.2 9.7c-5.6-12.5-21.6-13-28.3-1.2C486.9 62.4 431.4 96 368 96h-80C182 96 96 182 96 288c0 7 .8 13.7 1.5 20.5C161.3 262.8 253.4 224 384 224c8.8 0 16 7.2 16 16s-7.2 16-16 16C132.6 256 26 410.1 2.4 468c-6.6 16.3 1.2 34.9 17.5 41.6 16.4 6.8 35-1.1 41.8-17.3 1.5-3.6 20.9-47.9 71.9-90.6 32.4 43.9 94 85.8 174.9 77.2C465.5 467.5 576 326.7 576 154.3c0-50.2-10.8-102.2-29.8-144.6z"></path></g></symbol>
    <symbol id="ic-video" viewBox="0 0 24 24"><g fill="none"><path d="M17 10.5V7c0-.55-.45-1-1-1H4c-.55 0-1 .45-1 1v10c0 .55.45 1 1 1h12c.55 0 1-.45 1-1v-3.5l4 4v-11l-4 4z" fill="currentColor"></path></g></symbol>
    <symbol id="ic-down" viewBox="0 0 24 24"><g fill="none"><path d="M7.41 8.59L12 13.17l4.59-4.58L18 10l-6 6-6-6 1.41-1.41z" fill="currentColor"></path></g></symbol>
    <symbol id="ic-close" viewBox="0 0 24 24"><g fill="none"><path d="M19 6.41L17.59 5 12 10.59 6.41 5 5 6.41 10.59 12 5 17.59 6.41 19 12 13.41 17.59 19 19 17.59 13.41 12 19 6.41z" fill="currentColor"></path></g></symbol>
    <symbol id="ic-tag" viewBox="0 0 640 512"><g fill="currentColor"><path d="M497.941 225.941L286.059 14.059A48 48 0 0 0 252.118 0H48C21.49 0 0 21.49 0 48v204.118a48 48 0 0 0 14.059 33.941l211.882 211.882c18.744 18.745 49.136 18.746 67.882 0l204.118-204.118c18.745-18.745 18.745-49.137 0-67.882zM112 160c-26.51 0-48-21.49-48-48s21.49-48 48-48 48 21.49 48 48-21.49 48-48 48zm513.941 133.823L421.823 497.941c-18.745 18.745-49.137 18.745-67.882 0l-.36-.36L527.64 323.522c16.999-16.999 26.36-39.6 26.36-63.64s-9.362-46.641-26.36-63.64L331.397 0h48.721a48 48 0 0 1 33.941 14.059l211.882 211.882c18.745 18.745 18.745 49.137 0 67.882z"></path></g></symbol>
    <symbol id="ic-brands" viewBox="0 0 24 24"><g fill="none"><path d="M12 7V3H2v18h20V7H12zM6 19H4v-2h2v2zm0-4H4v-2h2v2zm0-4H4V9h2v2zm0-4H4V5h2v2zm4 12H8v-2h2v2zm0-4H8v-2h2v2zm0-4H8V9h2v2zm0-4H8V5h2v2zm10 12h-8v-2h2v-2h-2v-2h2v-2h-2V9h8v10zm-2-8h-2v2h2v-2zm0 4h-2v2h2v-2z" fill="currentColor"></path></g></symbol>
    <symbol id="ic-blacklist" viewBox="0 0 24 24"><g fill="none"><path d="M10 18h4v-2h-4v2zM3 6v2h18V6H3zm3 7h12v-2H6v2z" fill="currentColor"></path></g></symbol>
    <symbol id="ic-reset" viewBox="0 0 24 24"><g fill="none"><path d="M5 11h14v2H5v-2zm-2 4h14v2H3v-2zm4-8h14v2H7V7z" fill="currentColor"></path></g></symbol>
    <symbol id="ic-sort" viewBox="0 0 24 24"><g fill="none"><path d="M3 18h6v-2H3v2zM3 6v2h18V6H3zm0 7h12v-2H3v2z" fill="currentColor"></path></g></symbol>
    <symbol id="ic-lock" viewBox="0 0 24 24"><g fill="none"><path d="M18 8h-1V6c0-2.76-2.24-5-5-5S7 3.24 7 6v2H6c-1.1 0-2 .9-2 2v10c0 1.1.9 2 2 2h12c1.1 0 2-.9 2-2V10c0-1.1-.9-2-2-2zm-6 9c-1.1 0-2-.9-2-2s.9-2 2-2 2 .9 2 2-.9 2-2 2zm3.1-9H8.9V6c0-1.71 1.39-3.1 3.1-3.1 1.71 0 3.1 1.39 3.1 3.1v2z" fill="currentColor"></path></g></symbol>
    <symbol id="ic-history" viewBox="0 0 24 24"><g fill="none"><path d="M13 3a9 9 0 0 0-9 9H1l3.89 3.89.07.14L9 12H6c0-3.87 3.13-7 7-7s7 3.13 7 7-3.13 7-7 7c-1.93 0-3.68-.79-4.94-2.06l-1.42 1.42A8.954 8.954 0 0 0 13 21a9 9 0 0 0 0-18zm-1 5v5l4.28 2.54.72-1.21-3.5-2.08V8H12z" fill="currentColor"></path></g></symbol>
    <symbol id="ic-addimage" viewBox="0 0 24 24"><g fill="none"><path d="M19 7v2.99s-1.99.01-2 0V7h-3s.01-1.99 0-2h3V2h2v3h3v2h-3zm-3 4V8h-3V5H5c-1.1 0-2 .9-2 2v12c0 1.1.9 2 2 2h12c1.1 0 2-.9 2-2v-8h-3zM5 19l3-4 2 3 3-4 4 5H5z" fill="currentColor"></path></g></symbol>
    <symbol id="ic-settings" viewBox="0 0 24 24"><g fill="none"><path d="M19.14 12.94c.04-.3.06-.61.06-.94 0-.32-.02-.64-.07-.94l2.03-1.58a.49.49 0 0 0 .12-.61l-1.92-3.32a.488.488 0 0 0-.59-.22l-2.39.96c-.5-.38-1.03-.7-1.62-.94l-.36-2.54a.484.484 0 0 0-.48-.41h-3.84c-.24 0-.43.17-.47.41l-.36 2.54c-.59.24-1.13.57-1.62.94l-2.39-.96c-.22-.08-.47 0-.59.22L2.74 8.87c-.12.21-.08.47.12.61l2.03 1.58c-.05.3-.09.63-.09.94 0 .31.02.64.07.94l-2.03 1.58a.49.49 0 0 0-.12.61l1.92 3.32c.12.22.37.29.59.22l2.39-.96c.5.38 1.03.7 1.62.94l.36 2.54c.05.24.24.41.48.41h3.84c.24 0 .44-.17.47-.41l.36-2.54c.59-.24 1.13-.56 1.62-.94l2.39.96c.22.08.47 0 .59-.22l1.92-3.32c.12-.22.07-.47-.12-.61l-2.01-1.58zM12 15.6A3.61 3.61 0 0 1 8.4 12c0-1.98 1.62-3.6 3.6-3.6s3.6 1.62 3.6 3.6-1.62 3.6-3.6 3.6z" fill="currentColor"></path></g></symbol>
    <symbol id="ic-power" viewBox="0 0 512 512"><g fill="currentColor"><path d="M400 54.1c63 45 104 118.6 104 201.9 0 136.8-110.8 247.7-247.5 248C120 504.3 8.2 393 8 256.4 7.9 173.1 48.9 99.3 111.8 54.2c11.7-8.3 28-4.8 35 7.7L162.6 90c5.9 10.5 3.1 23.8-6.6 31-41.5 30.8-68 79.6-68 134.9-.1 92.3 74.5 168.1 168 168.1 91.6 0 168.6-74.2 168-169.1-.3-51.8-24.7-101.8-68.1-134-9.7-7.2-12.4-20.5-6.5-30.9l15.8-28.1c7-12.4 23.2-16.1 34.8-7.8zM296 264V24c0-13.3-10.7-24-24-24h-32c-13.3 0-24 10.7-24 24v240c0 13.3 10.7 24 24 24h32c13.3 0 24-10.7 24-24z"></path></g></symbol>
    <symbol id="ic-fav" viewBox="0 0 24 24"><g fill="currentColor"><path d="M21.95,3.051C20.627,1.729,18.87,1,17,1s-3.627,0.729-4.949,2.05C12.034,3.067,12.017,3.084,12,3.102 c-0.017-0.018-0.033-0.034-0.05-0.051C10.627,1.729,8.87,1,7,1S3.373,1.729,2.05,3.051S0,6.13,0,8s0.728,3.627,2.05,4.949l9.95,9.95 l9.95-9.95C23.272,11.627,24,9.87,24,8C24,6.131,23.272,4.373,21.95,3.051z"></path></g></symbol>
    <symbol id="ic-favoff" viewBox="0 0 24 24"><g fill="currentColor"><path d="M21.95,13.949a7,7,0,0,0-9.9-9.9L12,4.1l-.05-.05a7,7,0,0,0-6.52-1.862l14.14,14.14Z"></path> <path d="M1.708,1.293A1,1,0,0,0,.294,2.707l1.56,1.56a6.987,6.987,0,0,0,.2,9.683L12,23.9l4.743-4.743,3.55,3.55a1,1,0,0,0,1.414-1.414Z"></path></g></symbol>
    <symbol id="ic-download" viewBox="0 0 24 24"><g fill="none"><path d="M19.35 10.04A7.49 7.49 0 0 0 12 4C9.11 4 6.6 5.64 5.35 8.04A5.994 5.994 0 0 0 0 14c0 3.31 2.69 6 6 6h13c2.76 0 5-2.24 5-5 0-2.64-2.05-4.78-4.65-4.96zM17 13l-5 5-5-5h3V9h4v4h3z" fill="currentColor"></path></g></symbol>
    <symbol id="ic-report" viewBox="0 0 24 24"><g fill="none"><path d="M14.4 6L14 4H5v17h2v-7h5.6l.4 2h7V6h-5.6z" fill="currentColor"></path></g></symbol>
    <symbol id="ic-info" viewBox="0 0 24 24"><g fill="currentColor"><path d="M16.555,20.603l-0.306,1.254c-1.038,0.409-4.634,2.125-6.708,0.299c-0.618-0.543-0.927-1.233-0.927-2.069 c0-1.567,0.516-2.933,1.442-6.213c0.163-0.619,0.363-1.424,0.363-2.062c0-1.1-0.417-1.393-1.55-1.393 c-0.553,0-1.165,0.197-1.719,0.404l0.307-1.254c1.235-0.502,2.786-1.114,4.115-1.114c1.993,0,3.458,0.994,3.458,2.884 c0,0.545-0.094,1.499-0.292,2.159l-1.146,4.054c-0.236,0.82-0.666,2.626-0.002,3.162C14.245,21.243,15.792,20.963,16.555,20.603z"></path> <circle cx="14.5" cy="3.5" r="2.5"></circle></g></symbol>
    <symbol id="ic-more" viewBox="0 0 24 24"><g fill="none"><path d="M12 8c1.1 0 2-.9 2-2s-.9-2-2-2-2 .9-2 2 .9 2 2 2zm0 2c-1.1 0-2 .9-2 2s.9 2 2 2 2-.9 2-2-.9-2-2-2zm0 6c-1.1 0-2 .9-2 2s.9 2 2 2 2-.9 2-2-.9-2-2-2z" fill="currentColor"></path></g></symbol>
    <symbol id="ic-first" viewBox="0 0 16 16"><g fill="currentColor"><path d="M0,0v4c0,2.0654778,1.6036862,4,4.1414185,4c0.3443604,1.3294678,1.3492432,2.3786011,2.6487427,2.793457 C6.6119995,11.7305908,6.2819824,12.9043579,5.6672363,14H4v2h8v-2h-1.6672363 c-0.6147461-1.0956421-0.9447632-2.2694092-1.1229248-3.206543C10.5093384,10.3786011,11.5142212,9.3294678,11.8585815,8 C14.3879404,8,16,6.0717807,16,4V0H0z M2,4V2h2v4C2.8974609,6,2,5.1030273,2,4z M14,4c0,1.1030273-0.8974609,2-2,2V2h2V4z"></path></g></symbol>
    <symbol id="ic-save" xmlns="http://www.w3.org/2000/svg" viewBox="0 0 512 512"><g fill="currentColor"><path d="M464 96h-192l-64-64h-160C21.5 32 0 53.5 0 80v352C0 458.5 21.5 480 48 480h416c26.5 0 48-21.5 48-48v-288C512 117.5 490.5 96 464 96zM336 311.1h-56v56C279.1 381.3 269.3 392 256 392c-13.27 0-23.1-10.74-23.1-23.1V311.1H175.1C162.7 311.1 152 301.3 152 288c0-13.26 10.74-23.1 23.1-23.1h56V207.1C232 194.7 242.7 184 256 184s23.1 10.74 23.1 23.1V264h56C349.3 264 360 274.7 360 288S349.3 311.1 336 311.1z"/></g></symbol>
    <symbol id="ic-sqcheck" xmlns="http://www.w3.org/2000/svg" viewBox="0 0 448 512"><g fill="currentColor"><path d="M384 32C419.3 32 448 60.65 448 96V416C448 451.3 419.3 480 384 480H64C28.65 480 0 451.3 0 416V96C0 60.65 28.65 32 64 32H384zM339.8 211.8C350.7 200.9 350.7 183.1 339.8 172.2C328.9 161.3 311.1 161.3 300.2 172.2L192 280.4L147.8 236.2C136.9 225.3 119.1 225.3 108.2 236.2C97.27 247.1 97.27 264.9 108.2 275.8L172.2 339.8C183.1 350.7 200.9 350.7 211.8 339.8L339.8 211.8z"/></g></symbol>
    <symbol id="ic-sq" xmlns="http://www.w3.org/2000/svg" viewBox="0 0 448 512"><g fill="currentColor"><path d="M0 96C0 60.65 28.65 32 64 32H384C419.3 32 448 60.65 448 96V416C448 451.3 419.3 480 384 480H64C28.65 480 0 451.3 0 416V96z"/></g></symbol>
<symbol id="ic-thumbU" viewBox="0 0 24 24"><g fill="none"><path d="M9 21h9c.83 0 1.54-.5 1.84-1.22l3.02-7.05c.09-.23.14-.47.14-.73v-2c0-1.1-.9-2-2-2h-6.31l.95-4.57.03-.32c0-.41-.17-.79-.44-1.06L14.17 1 7.58 7.59C7.22 7.95 7 8.45 7 9v10c0 1.1.9 2 2 2zM9 9l4.34-4.34L12 10h9v2l-3 7H9V9zM1 9h4v12H1V9z" fill="currentColor"></path></g></symbol>
<symbol id="ic-thumbD" viewBox="0 0 24 24"><g fill="none"><path d="M15 3H6c-.83 0-1.54.5-1.84 1.22l-3.02 7.05c-.09.23-.14.47-.14.73v2c0 1.1.9 2 2 2h6.31l-.95 4.57-.03.32c0 .41.17.79.44 1.06L9.83 23l6.59-6.59c.36-.36.58-.86.58-1.41V5c0-1.1-.9-2-2-2zm0 12l-4.34 4.34L12 14H3v-2l3-7h9v10zm4-12h4v12h-4V3z" fill="currentColor"></path></g></symbol>
<symbol id="ic-reply" viewBox="0 0 24 24"><g fill="none"><path d="M10 9V5l-7 7 7 7v-4.1c5 0 8.5 1.6 11 5.1-1-5-4-10-11-11z" fill="currentColor"></path></g></symbol>
<symbol id="ic-caretD" viewBox="0 0 24 24"><g fill="none"><path d="M7 10l5 5 5-5H7z" fill="currentColor"></path></g></symbol>
    <symbol id="ic-play" xmlns="http://www.w3.org/2000/svg" viewBox="0 0 384 512"><g fill="currentColor"><path d="M361 215C375.3 223.8 384 239.3 384 256C384 272.7 375.3 288.2 361 296.1L73.03 472.1C58.21 482 39.66 482.4 24.52 473.9C9.377 465.4 0 449.4 0 432V80C0 62.64 9.377 46.63 24.52 38.13C39.66 29.64 58.21 29.99 73.03 39.04L361 215z"/></g></symbol>

</svg>